<svg width="121" height="114" viewBox="0 0 121 114" fill="none" xmlns="http://www.w3.org/2000/svg">
<path fill-rule="evenodd" clip-rule="evenodd" d="M62.2068 0.166992C79.3901 0.166992 93.3311 13.1695 93.4259 29.2429C93.9895 29.2079 94.558 29.1901 95.1306 29.1901C109.164 29.1901 120.54 39.8453 120.54 52.9891C120.54 62.315 114.813 70.3881 106.473 74.2912C106.986 72.6183 107.295 70.8639 107.374 69.0533C112.719 65.4736 116.202 59.6124 116.202 52.9891C116.202 42.0894 106.768 33.2534 95.1306 33.2534C93.9039 33.2534 92.7032 33.3514 91.5367 33.539L88.7921 33.9804L89.007 31.3799C89.0607 30.7295 89.0881 30.0719 89.0881 29.4078C89.0881 15.5026 77.0529 4.23023 62.2068 4.23023C52.0499 4.23023 43.2053 9.5055 38.6316 17.3L37.6273 19.0115L35.7618 18.1392C34.1053 17.3646 32.2358 16.9279 30.2512 16.9279C23.4271 16.9279 17.8951 22.1093 17.8951 28.5008C17.8951 29.8079 18.1256 31.0603 18.5488 32.2269L19.2019 34.0269L17.3277 34.7566C9.69715 37.7275 4.33821 44.7745 4.33821 52.9891C4.33821 57.1764 5.73047 61.0591 8.10507 64.2533C7.86674 65.5102 7.74235 66.8043 7.74235 68.1259C7.74235 68.8205 7.77671 69.5076 7.84391 70.1856C3.01024 65.853 0 59.7503 0 52.9891C0 43.7152 5.66296 35.6843 13.9198 31.757C13.6819 30.7054 13.5569 29.616 13.5569 28.5008C13.5569 19.8652 21.0312 12.8646 30.2512 12.8646C32.2049 12.8646 34.0834 13.1798 35.8296 13.7594C41.3634 5.59298 51.1072 0.166992 62.2068 0.166992Z" fill="white"/>
<path fill-rule="evenodd" clip-rule="evenodd" d="M72.2627 39.4524C68.6487 34.5906 62.675 31.4246 55.9276 31.4246C45.0242 31.4246 36.1375 39.7011 35.9808 50.0007C36.8539 50.2167 37.7123 50.489 38.5496 50.8165C40.9609 51.7596 43.1506 53.1414 44.9943 54.8823C45.8379 55.6789 45.8324 56.9652 44.9819 57.7554C44.1314 58.5456 42.758 58.5404 41.9143 57.7438C40.4718 56.3817 38.7603 55.3022 36.878 54.566C35.9848 54.2167 35.0614 53.9478 34.1199 53.7617L33.4896 53.6602C32.6364 53.5228 31.7582 53.451 30.8606 53.451C22.3027 53.451 15.3353 60.0061 15.3353 68.127C15.3353 76.2479 22.3027 82.8031 30.8606 82.8031L30.9059 82.803C30.9314 82.8029 30.9568 82.8028 30.9822 82.8026L30.9905 82.8026H30.9989H36.0238V86.8658H31.0069C30.9582 86.8661 30.9094 86.8663 30.8606 86.8663C19.8737 86.8663 10.9971 78.4609 10.9971 68.127C10.9971 57.7932 19.8737 49.3878 30.8606 49.3878L30.9295 49.3879L30.9425 49.3878C31.1812 49.3878 31.4198 49.3919 31.658 49.4C32.1466 37.1647 42.8099 27.3613 55.9276 27.3613C64.3308 27.3613 71.7282 31.3878 76.085 37.4907C77.398 37.0794 78.8013 36.8569 80.2572 36.8569L80.312 36.8571L80.3399 36.857C80.3569 36.857 80.3738 36.8572 80.3906 36.8576C87.651 36.9251 93.4853 42.499 93.4853 49.3309C93.4853 50.097 93.4118 50.8482 93.2708 51.5782C99.5429 54.7304 103.808 60.9613 103.808 68.127C103.808 78.1821 95.4034 86.4114 84.8286 86.8481V82.7796C92.9769 82.3465 99.4694 75.9663 99.4694 68.127C99.4694 62.0095 95.5114 56.7715 89.8924 54.5662L88.0303 53.8354L88.6752 52.0435C88.9805 51.1952 89.1471 50.2836 89.1471 49.3309C89.1471 44.6862 85.1778 40.9459 80.3075 40.9203C78.3664 40.927 76.4789 41.5347 74.9348 42.6534C73.3819 43.7786 72.2625 45.3586 71.7541 47.1501C71.4463 48.2345 70.2583 48.8799 69.1006 48.5917C67.9428 48.3035 67.2537 47.1908 67.5614 46.1064C68.3113 43.464 69.9622 41.1251 72.2627 39.4524Z" fill="white"/>
<path fill-rule="evenodd" clip-rule="evenodd" d="M53.936 86.3149C54.7831 85.5215 54.7831 84.2351 53.936 83.4417C53.0889 82.6483 51.7155 82.6483 50.8685 83.4417L47.5133 86.5842C46.6662 87.3776 46.6662 88.664 47.5133 89.4574C48.3604 90.2508 49.7338 90.2508 50.5809 89.4574L53.936 86.3149ZM43.8705 95.7424C44.7176 94.949 44.7176 93.6626 43.8705 92.8692C43.0235 92.0758 41.6501 92.0758 40.803 92.8692L37.4478 96.0117C36.6007 96.8051 36.6007 98.0915 37.4478 98.8849C38.2949 99.6783 39.6683 99.6783 40.5154 98.8849L43.8705 95.7424ZM70.2043 83.4417C71.0514 84.2351 71.0514 85.5215 70.2043 86.3149L66.6095 89.6818C65.7624 90.4752 64.389 90.4752 63.5419 89.6818C62.6948 88.8884 62.6948 87.6021 63.5419 86.8087L67.1367 83.4417C67.9838 82.6483 69.3572 82.6483 70.2043 83.4417ZM59.4199 93.5426C60.2669 94.336 60.2669 95.6224 59.4199 96.4158L52.2302 103.15C51.3831 103.943 50.0097 103.943 49.1627 103.15C48.3156 102.356 48.3156 101.07 49.1627 100.277L56.3523 93.5426C57.1994 92.7492 58.5728 92.7492 59.4199 93.5426ZM45.0406 107.011C45.8877 107.804 45.8877 109.09 45.0406 109.884L41.4458 113.251C40.5987 114.044 39.2253 114.044 38.3782 113.251C37.5311 112.457 37.5311 111.171 38.3782 110.377L41.973 107.011C42.8201 106.217 44.1935 106.217 45.0406 107.011ZM86.4726 83.4417C87.3197 84.2351 87.3197 85.5215 86.4726 86.3149L83.1174 89.4574C82.2703 90.2508 80.8969 90.2508 80.0498 89.4574C79.2027 88.664 79.2027 87.3776 80.0498 86.5842L83.405 83.4417C84.2521 82.6483 85.6255 82.6483 86.4726 83.4417ZM76.4071 92.8692C77.2542 93.6626 77.2542 94.949 76.4071 95.7424L73.0519 98.8849C72.2048 99.6783 70.8314 99.6783 69.9844 98.8849C69.1373 98.0915 69.1373 96.8051 69.9844 96.0117L73.3395 92.8692C74.1866 92.0758 75.56 92.0758 76.4071 92.8692Z" fill="white"/>
</svg>
