<svg width="273" height="184" viewBox="0 0 273 184" fill="none" xmlns="http://www.w3.org/2000/svg">
<path d="M196.22 81.417L196.255 87.4042L202.231 87.0352C203.327 86.9675 204.433 86.9331 205.548 86.9331C232.984 86.9331 254.524 107.549 254.524 132.145C254.524 156.741 232.984 177.357 205.548 177.357H55.6257C28.1896 177.357 6.64981 156.741 6.64981 132.145C6.64981 114.754 17.3339 99.445 33.3398 91.8767L37.4496 89.9334L36.4406 85.5008C36.0218 83.6612 35.8014 81.7537 35.8014 79.7971C35.8014 64.838 48.9509 52.0344 66.037 52.0344C69.6309 52.0344 73.0713 52.6105 76.2575 53.662L80.3084 54.9988L82.711 51.4741C93.5366 35.5926 112.722 24.891 134.751 24.891C168.969 24.891 196.037 50.5403 196.22 81.417Z" stroke="white" stroke-width="11.325"/>
<path fill-rule="evenodd" clip-rule="evenodd" d="M236.152 90.6531C256.86 85.1194 272.012 67.3546 272.012 46.2946C272.012 20.8101 249.824 0.150879 222.454 0.150879C200.248 0.150879 181.452 13.7508 175.151 32.4935C191.046 43.8171 201.298 61.6618 201.298 81.736C201.298 81.7813 201.298 81.8267 201.298 81.872C201.298 81.9036 201.298 81.9353 201.298 81.9669C202.7 81.8655 204.116 81.8138 205.546 81.8138C216.908 81.8138 227.451 85.0776 236.152 90.6531Z" fill="#F2994A"/>
</svg>
