<svg width="1920" height="1080" viewBox="0 0 1920 1080" fill="none" xmlns="http://www.w3.org/2000/svg">
<g opacity="0.1">
<path d="M1996 -84H-1V1100H1996V-84Z" fill="#A4BCC6"/>
<path d="M334.309 714.014L316.786 728.222L332.888 744.798C334.309 746.219 334.309 748.587 332.888 750.481C332.415 750.955 331.941 751.428 330.994 751.428C329.573 751.902 328.152 751.428 327.205 750.481L309.208 732.011L296.895 731.064L296.421 738.168C296.421 739.588 295.474 741.009 294.053 741.009C293.58 741.009 293.58 741.009 293.106 741.009C291.212 741.009 289.791 739.588 290.264 737.694L290.738 730.59L259.954 728.696L280.319 751.902L284.108 748.587C285.528 747.64 287.423 747.64 288.844 749.06C289.791 750.481 289.791 752.376 288.37 753.796L284.581 757.112L292.159 765.636H292.632L318.207 768.478C320.101 768.478 321.996 770.372 321.522 772.74C321.522 774.635 320.101 775.582 318.68 776.056C318.207 776.056 317.733 776.056 317.26 776.056L294.527 773.688L294.053 796.42C294.053 798.315 292.632 799.736 291.212 800.209C290.738 800.209 290.738 800.209 290.264 800.209C288.37 800.209 286.476 798.315 286.476 796.42L286.949 771.793C286.949 771.793 286.949 771.793 286.476 771.793L277.951 762.321L272.741 767.057C272.268 767.531 271.794 767.531 271.32 768.004C270.373 768.478 268.952 768.004 268.005 767.057C267.058 765.636 267.058 763.742 268.479 762.321L273.688 758.059L254.271 735.8L252.376 766.11L256.639 766.584C258.533 766.584 259.954 768.004 259.48 769.899C259.48 771.32 258.533 772.74 257.112 772.74C256.639 772.74 256.639 772.74 256.165 772.74L251.903 772.267L251.429 783.633L267.532 803.524C268.952 804.945 268.479 807.787 267.058 808.734C266.584 809.208 266.111 809.208 265.637 809.681C264.69 809.681 263.743 809.681 262.796 809.208C261.848 810.155 247.167 790.737 247.167 790.737L230.591 806.84C230.117 807.313 229.644 807.787 228.696 807.787C227.276 808.26 225.855 807.787 224.908 806.84C223.487 805.419 223.487 803.051 224.908 801.156L243.378 783.16L243.852 771.793L236.748 771.32C234.853 771.32 233.432 769.899 233.906 768.004C233.906 766.11 235.327 764.689 237.221 765.163L244.325 765.636L246.22 733.432L222.54 754.744L225.855 758.532C226.802 759.953 226.802 761.848 225.381 763.268C224.908 763.742 224.434 763.742 223.96 764.216C223.013 764.689 221.592 764.216 220.645 763.268L217.33 759.48L209.279 766.584V767.057L206.437 792.632C206.437 794.526 205.016 795.473 203.596 795.947C203.122 795.947 202.648 795.947 202.175 795.947C200.28 795.947 198.386 794.052 198.86 791.684L201.228 768.952L178.495 768.478C176.6 768.478 174.706 766.584 174.706 764.689C174.706 762.795 176.6 760.9 178.495 760.9L203.122 761.374C203.122 761.374 203.122 761.374 203.596 760.9L212.12 753.323L207.858 748.587C206.911 747.166 206.911 745.272 208.332 743.851C209.752 742.904 211.647 742.904 213.068 744.324L217.33 749.06L240.063 728.696L209.752 726.801L209.279 732.484C209.279 733.905 208.332 735.326 206.911 735.326C206.437 735.326 206.437 735.326 205.964 735.326C204.069 735.326 202.648 733.905 203.122 732.011L203.596 726.328L192.229 725.854L172.338 741.956C171.864 742.43 171.391 742.43 170.917 742.904C169.496 743.377 168.076 742.904 167.128 741.483C165.708 740.062 166.181 737.22 167.602 736.273L185.125 722.065L169.023 705.489C167.602 704.068 167.602 701.7 169.023 699.806C170.444 698.385 172.812 698.385 174.706 699.806L192.703 718.276L204.069 718.75L204.543 712.593C204.543 710.699 205.964 709.278 207.858 709.752C209.752 709.752 211.173 711.172 210.7 713.067L210.226 719.224L240.536 721.118L220.645 698.385L216.856 701.7C216.383 702.174 215.909 702.174 215.436 702.648C214.488 703.121 213.068 702.648 212.12 701.7C211.173 700.28 211.173 698.385 212.594 696.964L216.856 692.702L208.805 683.704C208.805 683.704 208.805 683.704 208.805 683.23L184.178 680.862C182.284 680.862 180.389 678.968 180.863 676.6C180.863 674.705 182.757 672.811 185.125 673.284L207.858 675.652L208.332 652.92C208.332 651.025 210.226 649.131 212.12 649.131C214.015 649.131 215.909 651.025 215.909 652.92L215.436 678.968V679.441L223.013 687.492L227.749 683.23C229.17 682.283 231.064 682.283 232.485 683.704C233.432 685.124 233.432 687.019 232.012 688.44L227.276 692.702L248.114 716.382L250.008 685.598L244.325 685.124C242.431 685.124 241.01 683.704 241.484 681.809C241.484 679.915 242.904 678.494 244.799 678.968L250.482 679.441L251.429 667.128L235.327 647.236C233.906 645.816 234.38 642.974 235.8 642.027C237.221 640.606 240.063 641.08 241.01 642.5L255.218 660.024L271.794 643.921C273.215 642.5 275.583 642.5 277.477 643.921C278.898 645.342 278.898 647.71 277.477 649.604L259.007 667.601L258.06 679.915L264.216 680.388C266.111 680.388 267.532 681.809 267.058 683.704C267.058 685.124 266.111 686.545 264.69 686.545C264.216 686.545 264.216 686.545 263.743 686.545L257.586 686.072L255.692 714.961L277.477 695.544L274.636 692.228C273.688 690.808 273.688 688.913 275.109 687.492C276.53 686.545 278.424 686.545 279.845 687.966L282.687 691.281L292.159 682.756C292.159 682.756 292.159 682.756 292.632 682.756L295 658.129C295 656.235 296.895 654.34 299.263 654.814C301.157 654.814 303.052 656.708 302.578 659.076L300.21 681.809L322.943 682.283C324.837 682.283 326.732 684.177 326.732 686.072C326.732 687.966 325.311 689.387 323.89 689.86C323.416 689.86 323.416 689.86 322.943 689.86L296.895 689.387H296.421L287.423 697.438L292.159 702.648C293.106 704.068 293.106 705.963 291.685 707.384C291.212 707.857 290.738 707.857 290.264 708.331C289.317 708.804 287.896 708.331 286.949 707.384L282.213 702.174L259.48 722.539L290.264 724.433L290.738 720.171C290.738 718.276 292.159 716.856 294.053 717.329C295.948 717.329 297.368 718.75 296.895 720.644L296.421 724.907L308.735 725.854L328.626 709.752C330.047 708.331 332.888 708.804 333.836 710.225C336.204 710.225 336.204 712.593 334.309 714.014Z" fill="white"/>
<path d="M655.039 472.845L637.515 487.053L653.618 503.629C655.039 505.049 655.039 507.417 653.618 509.312C653.144 509.785 652.671 510.259 651.723 510.259C650.303 510.733 648.882 510.259 647.935 509.312L629.938 490.841L617.624 489.894L617.151 496.998C617.151 498.419 616.203 499.84 614.783 499.84C614.309 499.84 614.309 499.84 613.835 499.84C611.941 499.84 610.52 498.419 610.994 496.525L611.467 489.421L580.683 487.526L601.048 510.733L604.837 507.417C606.258 506.47 608.152 506.47 609.573 507.891C610.52 509.312 610.52 511.206 609.099 512.627L605.311 515.942L612.888 524.467H613.362L638.936 527.309C640.831 527.309 642.725 529.203 642.251 531.571C642.251 533.465 640.831 534.413 639.41 534.886C638.936 534.886 638.463 534.886 637.989 534.886L615.256 532.518L614.783 555.251C614.783 557.145 613.362 558.566 611.941 559.04C611.467 559.04 611.467 559.04 610.994 559.04C609.099 559.04 607.205 557.145 607.205 555.251L607.679 530.624C607.679 530.624 607.679 530.624 607.205 530.624L598.68 521.152L593.471 525.888C592.997 526.361 592.523 526.361 592.05 526.835C591.103 527.309 589.682 526.835 588.735 525.888C587.787 524.467 587.787 522.573 589.208 521.152L594.418 516.889L575 494.63L573.106 524.941L577.368 525.414C579.263 525.414 580.683 526.835 580.21 528.729C580.21 530.15 579.263 531.571 577.842 531.571C577.368 531.571 577.368 531.571 576.895 531.571L572.632 531.097L572.159 542.464L588.261 562.355C589.682 563.776 589.208 566.617 587.787 567.565C587.314 568.038 586.84 568.038 586.367 568.512C585.419 568.512 584.472 568.512 583.525 568.038C582.578 568.985 567.896 549.568 567.896 549.568L551.32 565.67C550.847 566.144 550.373 566.617 549.426 566.617C548.005 567.091 546.584 566.617 545.637 565.67C544.216 564.249 544.216 561.881 545.637 559.987L564.107 541.99L564.581 530.624L557.477 530.15C555.583 530.15 554.162 528.729 554.635 526.835C554.635 524.941 556.056 523.52 557.951 523.993L565.055 524.467L566.949 492.262L543.269 513.574L546.584 517.363C547.531 518.784 547.531 520.678 546.111 522.099C545.637 522.573 545.163 522.573 544.69 523.046C543.743 523.52 542.322 523.046 541.375 522.099L538.059 518.31L530.008 525.414V525.888L527.167 551.462C527.167 553.357 525.746 554.304 524.325 554.777C523.851 554.777 523.378 554.777 522.904 554.777C521.01 554.777 519.115 552.883 519.589 550.515L521.957 527.782L499.224 527.309C497.33 527.309 495.435 525.414 495.435 523.52C495.435 521.625 497.33 519.731 499.224 519.731L523.851 520.205C523.851 520.205 523.851 520.205 524.325 519.731L532.85 512.153L528.587 507.417C527.64 505.997 527.64 504.102 529.061 502.681C530.482 501.734 532.376 501.734 533.797 503.155L538.059 507.891L560.792 487.526L530.482 485.632L530.008 491.315C530.008 492.736 529.061 494.157 527.64 494.157C527.167 494.157 527.167 494.157 526.693 494.157C524.799 494.157 523.378 492.736 523.851 490.841L524.325 485.158L512.959 484.685L493.067 500.787C492.594 501.261 492.12 501.261 491.647 501.734C490.226 502.208 488.805 501.734 487.858 500.313C486.437 498.893 486.911 496.051 488.331 495.104L505.855 480.896L489.752 464.32C488.331 462.899 488.331 460.531 489.752 458.637C491.173 457.216 493.541 457.216 495.435 458.637L513.432 477.107L524.799 477.581L525.272 471.424C525.272 469.529 526.693 468.109 528.587 468.582C530.482 468.582 531.903 470.003 531.429 471.897L530.955 478.054L561.266 479.949L541.375 457.216L537.586 460.531C537.112 461.005 536.639 461.005 536.165 461.478C535.218 461.952 533.797 461.478 532.85 460.531C531.903 459.11 531.903 457.216 533.323 455.795L537.586 451.533L529.535 442.534C529.535 442.534 529.535 442.534 529.535 442.061L504.907 439.693C503.013 439.693 501.119 437.798 501.592 435.43C501.592 433.536 503.487 431.641 505.855 432.115L528.587 434.483L529.061 411.75C529.061 409.856 530.955 407.961 532.85 407.961C534.744 407.961 536.639 409.856 536.639 411.75L536.165 437.798V438.272L543.743 446.323L548.479 442.061C549.899 441.113 551.794 441.113 553.215 442.534C554.162 443.955 554.162 445.849 552.741 447.27L548.005 451.533L568.843 475.213L570.738 444.429L565.055 443.955C563.16 443.955 561.739 442.534 562.213 440.64C562.213 438.745 563.634 437.325 565.528 437.798L571.211 438.272L572.159 425.958L556.056 406.067C554.635 404.646 555.109 401.805 556.53 400.857C557.951 399.437 560.792 399.91 561.739 401.331L575.947 418.854L592.523 402.752C593.944 401.331 596.312 401.331 598.207 402.752C599.627 404.173 599.627 406.541 598.207 408.435L579.736 426.432L578.789 438.745L584.946 439.219C586.84 439.219 588.261 440.64 587.787 442.534C587.787 443.955 586.84 445.376 585.419 445.376C584.946 445.376 584.946 445.376 584.472 445.376L578.315 444.902L576.421 473.792L598.207 454.374L595.365 451.059C594.418 449.638 594.418 447.744 595.839 446.323C597.259 445.376 599.154 445.376 600.575 446.797L603.416 450.112L612.888 441.587C612.888 441.587 612.888 441.587 613.362 441.587L615.73 416.96C615.73 415.065 617.624 413.171 619.992 413.645C621.887 413.645 623.781 415.539 623.307 417.907L620.939 440.64L643.672 441.113C645.567 441.113 647.461 443.008 647.461 444.902C647.461 446.797 646.04 448.217 644.619 448.691C644.146 448.691 644.146 448.691 643.672 448.691L617.624 448.217H617.151L608.152 456.269L612.888 461.478C613.835 462.899 613.835 464.793 612.415 466.214C611.941 466.688 611.467 466.688 610.994 467.161C610.047 467.635 608.626 467.161 607.679 466.214L602.943 461.005L580.21 481.369L610.994 483.264L611.467 479.001C611.467 477.107 612.888 475.686 614.783 476.16C616.677 476.16 618.098 477.581 617.624 479.475L617.151 483.737L629.464 484.685L649.355 468.582C650.776 467.161 653.618 467.635 654.565 469.056C656.933 469.056 656.933 471.424 655.039 472.845Z" fill="white"/>
<path d="M1456.9 165.113C1441.27 165.113 1440.8 189.74 1456.9 189.74C1472.53 189.74 1473 165.113 1456.9 165.113Z" fill="white"/>
<path d="M1442.69 638.712C1427.06 638.712 1426.59 663.34 1442.69 663.34C1458.32 663.34 1458.79 638.712 1442.69 638.712Z" fill="white"/>
<path d="M176.6 146.642C163.34 146.642 163.34 167.006 176.6 167.006C189.861 167.006 189.861 146.642 176.6 146.642Z" fill="white"/>
<path d="M1410.49 849.464C1383.49 849.464 1383.02 891.615 1410.01 891.615C1437.01 891.615 1437.48 849.464 1410.49 849.464Z" fill="white"/>
<path d="M456.024 -12.4868C429.029 -12.4868 428.556 29.6636 455.551 29.6636C482.546 29.6636 483.019 -12.4868 456.024 -12.4868Z" fill="white"/>
<path d="M550.271 742.433C542.693 742.433 542.693 754.273 550.271 754.273C557.848 754.273 557.848 742.433 550.271 742.433Z" fill="white"/>
<path d="M84.248 602.721C73.3552 602.721 72.8816 619.771 84.248 619.771C95.1408 619.771 95.1408 602.721 84.248 602.721Z" fill="white"/>
<path d="M1757.16 608.876C1744.37 608.876 1744.37 628.768 1757.16 628.768C1769.95 628.294 1769.95 608.876 1757.16 608.876Z" fill="white"/>
<path d="M1571.51 719.697C1568.67 719.697 1568.67 723.959 1571.51 723.959C1574.35 723.959 1574.35 719.697 1571.51 719.697Z" fill="white"/>
<path d="M83.7746 437.905C72.8818 437.905 72.8818 454.954 83.7746 454.954C94.1938 454.481 94.6674 437.905 83.7746 437.905Z" fill="white"/>
<path d="M88.5104 338.449C82.8272 338.449 82.8272 347.448 88.5104 347.448C93.72 346.974 94.1936 338.449 88.5104 338.449Z" fill="white"/>
<path d="M221.119 576.673C215.909 576.673 215.909 584.724 221.119 584.724C226.328 584.25 226.328 576.673 221.119 576.673Z" fill="white"/>
<path d="M604.261 693.648C598.578 693.648 598.578 702.173 604.261 702.173C609.471 702.173 609.944 693.648 604.261 693.648Z" fill="white"/>
<path d="M1635.92 97.3892C1619.34 97.3892 1619.34 122.49 1635.92 122.49C1652.02 122.964 1652.49 97.3892 1635.92 97.3892Z" fill="white"/>
<path d="M115.032 207.266C105.56 207.266 105.56 221.474 115.032 221.474C124.031 221.474 124.031 207.266 115.032 207.266Z" fill="white"/>
<path d="M330.52 547.309C321.048 547.309 321.048 561.517 330.52 561.517C339.518 561.991 339.518 547.309 330.52 547.309Z" fill="white"/>
<path d="M1695.12 370.657C1685.65 370.657 1685.17 385.812 1695.12 385.812C1704.59 385.338 1704.59 370.657 1695.12 370.657Z" fill="white"/>
<path d="M1769.95 253.201C1768.53 253.201 1768.53 255.569 1769.95 255.569C1771.84 255.569 1771.84 253.201 1769.95 253.201Z" fill="white"/>
<path d="M1699.38 261.73C1691.8 261.73 1691.8 273.57 1699.38 273.57C1706.96 273.096 1706.96 261.73 1699.38 261.73Z" fill="white"/>
<path d="M1823.46 222.893C1811.62 222.893 1811.62 241.363 1823.46 241.363C1835.3 241.363 1835.3 222.893 1823.46 222.893Z" fill="white"/>
<path d="M1820.62 363.08C1817.31 359.764 1811.15 359.764 1807.84 363.08C1805.47 365.448 1804.05 368.289 1804.52 371.604C1804.52 372.078 1804.52 373.025 1804.99 373.499C1805.47 376.34 1805.94 378.235 1807.84 380.129C1809.73 382.024 1812.1 382.971 1814.47 382.971C1816.83 382.971 1819.2 382.024 1821.1 380.129C1822.99 378.235 1823.46 376.34 1823.94 373.499C1823.94 373.025 1823.94 372.078 1824.41 371.604C1824.41 368.289 1822.99 365.448 1820.62 363.08Z" fill="white"/>
<path d="M1797.89 -3.01514L1804.52 28.7161L1836.25 35.3465L1804.52 42.4505L1797.89 74.1817L1791.26 42.4505L1759.05 35.3465L1791.26 28.7161L1797.89 -3.01514Z" fill="white"/>
<path d="M506.7 146.642L511.909 171.742L536.536 176.952L511.909 182.162L506.7 207.262L501.016 182.162L476.389 176.952L501.016 171.742L506.7 146.642Z" fill="white"/>
<path d="M152.447 493.794L158.13 520.316L184.178 525.525L158.13 531.208L152.447 557.73L146.763 531.208L120.242 525.525L146.763 520.316L152.447 493.794Z" fill="white"/>
<path d="M1552.09 247.522L1559.67 283.042L1595.19 290.62L1559.67 298.197L1552.09 333.717L1544.51 298.197L1508.99 290.62L1544.51 283.042L1552.09 247.522Z" fill="white"/>
<path d="M444.184 720.646L448.447 741.484L469.759 746.22L448.447 750.956L444.184 772.268L439.448 750.956L418.136 746.22L439.448 741.484L444.184 720.646Z" fill="white"/>
<path d="M250.008 476.74C238.168 476.74 238.168 494.737 250.008 494.737C261.375 494.737 261.375 476.74 250.008 476.74Z" fill="white"/>
<path d="M297.368 256.993H311.576L303.999 248.469L311.576 241.838L324.363 256.993H339.992V244.68L323.89 231.893L330.52 224.315L339.992 231.893V219.105H349.464V231.893L358.936 224.315L365.093 231.893L349.464 244.68V256.993H363.672L376.459 242.312L384.511 247.995L376.933 256.993H392.088V266.465H376.933L384.511 277.358L376.459 283.041L363.672 266.465H349.464V283.989L365.093 296.776L358.936 304.353L349.464 296.776V313.825H339.992V296.776L330.047 304.353L323.89 296.776L339.992 283.989V266.465H324.363L311.576 283.515L303.999 276.411L311.576 266.465H297.368V256.993Z" fill="white"/>
<path d="M1215 300C1201.73 300 1201.73 320.364 1215 320.364C1228.26 320.364 1228.26 300 1215 300Z" fill="white"/>
<path d="M1122.17 591.262C1111.28 591.262 1111.28 608.312 1122.17 608.312C1132.59 607.838 1133.06 591.262 1122.17 591.262Z" fill="white"/>
<path d="M1126.91 491.806C1121.22 491.806 1121.22 500.805 1126.91 500.805C1132.12 500.331 1132.59 491.806 1126.91 491.806Z" fill="white"/>
<path d="M1153.43 360.624C1143.96 360.624 1143.96 374.832 1153.43 374.832C1162.43 374.832 1162.43 360.624 1153.43 360.624Z" fill="white"/>
<path d="M1368.92 700.667C1359.44 700.667 1359.44 714.875 1368.92 714.875C1377.91 715.348 1377.91 700.667 1368.92 700.667Z" fill="white"/>
<path d="M1190.84 647.152L1196.52 673.673L1222.57 678.883L1196.52 684.566L1190.84 711.088L1185.16 684.566L1158.64 678.883L1185.16 673.673L1190.84 647.152Z" fill="white"/>
<path d="M1288.4 630.097C1276.56 630.097 1276.56 648.094 1288.4 648.094C1299.77 648.094 1299.77 630.097 1288.4 630.097Z" fill="white"/>
<path d="M1335.76 410.351H1349.97L1342.39 401.827L1349.97 395.196L1362.76 410.351H1378.39V398.038L1362.29 385.251L1368.92 377.673L1378.39 385.251V372.463H1387.86V385.251L1397.33 377.673L1403.49 385.251L1387.86 398.038V410.351H1402.07L1414.85 395.67L1422.91 401.353L1415.33 410.351H1430.48V419.823H1415.33L1422.91 430.716L1414.85 436.399L1402.07 419.823H1387.86V437.347L1403.49 450.134L1397.33 457.711L1387.86 450.134V467.183H1378.39V450.134L1368.44 457.711L1362.29 450.134L1378.39 437.347V419.823H1362.76L1349.97 436.873L1342.39 429.769L1349.97 419.823H1335.76V410.351Z" fill="white"/>
<path d="M1569.14 654.817H1584.77L1579.09 648.66L1584.77 643.924L1594.24 654.817H1602.29V645.819L1591.87 636.82L1596.14 630.663L1602.29 636.347V626.401H1611.76V636.347L1618.87 630.663L1623.6 636.82L1611.76 645.819V654.817H1623.13L1632.6 644.398L1638.29 648.187L1632.6 654.817H1644.92V664.289H1632.6L1638.29 671.393L1632.6 676.129L1623.13 664.289H1611.76V675.182L1623.6 684.654L1618.87 690.337L1611.76 684.654V697.441H1602.29V684.654L1596.61 690.337L1591.4 684.654L1602.29 675.182V664.289H1594.24L1584.77 676.129L1579.09 671.393L1584.77 664.289H1569.14V654.817Z" fill="white"/>
<path d="M178.968 39.1372H194.597L188.914 32.9804L194.597 28.2444L204.069 39.1372H212.12V30.1388L201.701 21.1404L205.963 14.9836L212.12 20.6668V10.7212H221.592V20.6668L228.696 14.9836L233.432 21.1404L221.592 30.1388V39.1372H232.959L242.431 28.718L248.114 32.5068L242.431 39.1372H254.744V48.6092H242.431L248.114 55.7132L242.431 60.4492L232.959 48.6092H221.592V59.502L233.432 68.974L228.696 74.6572L221.592 68.974V81.7612H212.12V68.974L206.437 74.6572L201.227 68.974L212.12 59.502V48.6092H204.069L194.597 60.4492L188.914 55.7132L194.597 48.6092H178.968V39.1372Z" fill="white"/>
<path d="M1524.62 41.9774L1533.15 33.4526L1524.62 32.0318L1525.1 24.9278L1539.78 26.8222L1547.36 18.771L1539.78 11.1934L1525.1 13.0878L1524.62 5.98381L1533.15 4.56302L1524.62 -3.96179L1529.36 -8.69779L1537.88 -0.172984L1538.83 -9.17139L1546.41 -8.22419L1544.51 6.45741L1552.56 14.035L1560.14 6.45741L1558.25 -8.22419L1565.35 -9.17139L1566.77 -0.172984L1575.3 -9.17139L1580.03 -3.96179L1571.51 4.56302L1580.51 5.51021L1579.56 12.6142L1564.88 11.1934L1557.3 18.771L1564.88 26.3486L1579.56 24.9278L1580.51 32.0318L1571.51 32.979L1580.51 41.5038L1575.3 46.7134L1566.77 38.1886L1565.83 46.7134L1558.72 46.2398L1560.14 31.5582L1552.56 23.9806L1544.99 31.5582L1546.41 46.2398L1539.3 46.7134L1538.36 38.1886L1529.83 46.7134L1524.62 41.9774Z" fill="white"/>
<path d="M685.9 679.284C670.271 679.284 669.798 703.911 685.9 703.911C701.529 703.911 702.003 679.284 685.9 679.284Z" fill="white"/>
<path d="M864.921 611.56C848.345 611.56 848.345 636.661 864.921 636.661C881.023 637.134 881.497 611.56 864.921 611.56Z" fill="white"/>
<path d="M924.121 884.828C914.649 884.828 914.175 899.983 924.121 899.983C933.593 899.509 933.593 884.828 924.121 884.828Z" fill="white"/>
<path d="M998.95 767.372C997.529 767.372 997.529 769.74 998.95 769.74C1000.84 769.74 1000.84 767.372 998.95 767.372Z" fill="white"/>
<path d="M928.383 775.901C920.806 775.901 920.806 787.741 928.383 787.741C935.961 787.267 935.961 775.901 928.383 775.901Z" fill="white"/>
<path d="M1052.47 737.064C1040.63 737.064 1040.63 755.534 1052.47 755.534C1064.31 755.534 1064.31 737.064 1052.47 737.064Z" fill="white"/>
<path d="M1049.63 877.251C1046.31 873.935 1040.15 873.935 1036.84 877.251C1034.47 879.619 1033.05 882.46 1033.52 885.775C1033.52 886.249 1033.52 887.196 1034 887.67C1034.47 890.511 1034.94 892.406 1036.84 894.3C1038.73 896.195 1041.1 897.142 1043.47 897.142C1045.84 897.142 1048.2 896.195 1050.1 894.3C1051.99 892.406 1052.47 890.511 1052.94 887.67C1052.94 887.196 1052.94 886.249 1053.41 885.775C1053.41 882.46 1051.99 879.619 1049.63 877.251Z" fill="white"/>
<path d="M1026.89 511.156L1033.52 542.887L1065.25 549.517L1033.52 556.621L1026.89 588.353L1020.26 556.621L988.057 549.517L1020.26 542.887L1026.89 511.156Z" fill="white"/>
<path d="M781.094 761.693L788.671 797.213L824.191 804.79L788.671 812.368L781.094 847.888L773.516 812.368L737.996 804.79L773.516 797.213L781.094 761.693Z" fill="white"/>
<path d="M753.625 556.148L762.15 547.624L753.625 546.203L754.099 539.099L768.78 540.993L776.358 532.942L768.78 525.364L754.099 527.259L753.625 520.155L762.15 518.734L753.625 510.209L758.361 505.473L766.886 513.998L767.833 505L775.411 505.947L773.516 520.628L781.567 528.206L789.145 520.628L787.251 505.947L794.355 505L795.775 513.998L804.3 505L809.036 510.209L800.511 518.734L809.51 519.681L808.563 526.785L793.881 525.364L786.303 532.942L793.881 540.52L808.563 539.099L809.51 546.203L800.511 547.15L809.51 555.675L804.3 560.884L795.775 552.36L794.828 560.884L787.724 560.411L789.145 545.729L781.567 538.152L773.99 545.729L775.411 560.411L768.307 560.884L767.359 552.36L758.835 560.884L753.625 556.148Z" fill="white"/>
<path d="M1738.69 491.424L1747.21 482.899L1738.69 481.952L1739.64 474.848L1753.84 476.269L1761.42 468.691L1753.84 461.113L1739.16 462.534L1738.69 455.43L1747.21 454.483L1738.69 445.958L1743.43 440.749L1752.42 449.273L1753.37 440.749L1760.48 441.696L1759.05 455.904L1766.63 463.481L1774.21 455.904L1772.32 441.222L1779.89 440.749L1780.84 449.273L1789.36 440.749L1794.1 445.485L1785.58 454.483L1794.57 455.43L1793.63 462.534L1778.95 461.113L1771.37 468.691L1779.42 476.269L1793.63 474.374L1794.57 481.952L1786.05 482.899L1794.57 491.424L1789.36 496.16L1780.84 487.635L1779.89 496.633L1772.79 495.686L1774.21 481.005L1766.63 473.427L1759.05 481.005L1760.95 495.686L1753.37 496.633L1752.42 488.109L1743.9 496.633L1738.69 491.424Z" fill="white"/>
<path d="M594.9 59.9995C579.271 59.9995 578.798 84.6267 594.9 84.6267C610.529 84.6267 611.003 59.9995 594.9 59.9995Z" fill="white"/>
<path d="M833.121 265.543C823.649 265.543 823.175 280.699 833.121 280.699C842.593 280.225 842.593 265.543 833.121 265.543Z" fill="white"/>
<path d="M907.95 148.087C906.529 148.087 906.529 150.455 907.95 150.455C909.844 150.455 909.844 148.087 907.95 148.087Z" fill="white"/>
<path d="M837.383 156.617C829.806 156.617 829.806 168.457 837.383 168.457C844.961 167.983 844.961 156.617 837.383 156.617Z" fill="white"/>
<path d="M961.467 117.78C949.627 117.78 949.627 136.25 961.467 136.25C973.307 136.25 973.307 117.78 961.467 117.78Z" fill="white"/>
<path d="M958.625 257.966C955.31 254.651 949.153 254.651 945.838 257.966C943.47 260.334 942.049 263.176 942.523 266.491C942.523 266.965 942.523 267.912 942.996 268.386C943.47 271.227 943.943 273.122 945.838 275.016C947.732 276.91 950.1 277.858 952.468 277.858C954.836 277.858 957.204 276.91 959.099 275.016C960.993 273.122 961.467 271.227 961.94 268.386C961.94 267.912 961.94 266.965 962.414 266.491C962.414 263.176 960.993 260.334 958.625 257.966Z" fill="white"/>
<path d="M690.094 142.409L697.671 177.929L733.191 185.506L697.671 193.084L690.094 228.604L682.516 193.084L646.996 185.506L682.516 177.929L690.094 142.409Z" fill="white"/>
<path d="M876.692 386.31L885.217 377.786L876.692 376.838L877.639 369.734L891.847 371.155L899.425 363.578L891.847 356L877.166 357.421L876.692 350.317L885.217 349.37L876.692 340.845L881.428 335.635L890.427 344.16L891.374 335.635L898.478 336.582L897.057 350.79L904.635 358.368L912.212 350.79L910.318 336.109L917.895 335.635L918.843 344.16L927.367 335.635L932.103 340.371L923.579 349.37L932.577 350.317L931.63 357.421L916.948 356L909.371 363.578L917.422 371.155L931.63 369.261L932.577 376.838L924.052 377.786L932.577 386.31L927.367 391.046L918.843 382.522L917.895 391.52L910.791 390.573L912.212 375.891L904.635 368.314L897.057 375.891L898.951 390.573L891.374 391.52L890.427 382.995L881.902 391.52L876.692 386.31Z" fill="white"/>
<path d="M1841.54 883.564C1819.75 883.091 1801.75 860.831 1801.75 860.831C1816.91 864.62 1832.54 855.622 1832.54 855.622C1808.86 853.254 1796.07 831.468 1796.07 831.468C1810.75 835.731 1825.43 825.785 1825.43 825.785C1805.07 824.838 1793.7 799.263 1793.7 799.263C1807.44 805.42 1821.17 796.895 1821.17 796.895C1804.12 793.58 1790.86 772.742 1790.86 772.742C1804.6 772.742 1817.86 763.27 1817.86 763.27C1779.49 751.43 1770.02 724.908 1770.02 724.908C1770.02 724.908 1758.66 756.639 1722.66 763.27C1722.66 763.27 1736.4 772.742 1749.66 772.742C1749.66 772.742 1736.4 793.58 1719.35 796.895C1719.35 796.895 1733.56 805.894 1746.82 799.263C1746.82 799.263 1735.45 824.838 1715.08 825.785C1715.08 825.785 1730.24 835.731 1744.92 831.468C1744.92 831.468 1731.66 852.78 1708.45 855.622C1708.45 855.622 1724.56 864.62 1739.71 860.831C1739.71 860.831 1722.19 883.091 1700.4 883.564C1700.4 883.564 1715.08 897.299 1757.71 899.667V929.977H1786.12V899.667C1824.49 896.825 1841.54 883.564 1841.54 883.564Z" fill="#7B8D95"/>
<path d="M1713.66 865.567C1695.67 865.094 1681.46 847.097 1681.46 847.097C1693.77 849.938 1706.56 842.834 1706.56 842.834C1687.62 840.94 1676.72 823.417 1676.72 823.417C1688.56 826.732 1700.88 818.681 1700.88 818.681C1684.3 817.734 1674.83 796.895 1674.83 796.895C1685.72 802.105 1697.09 795.001 1697.09 795.001C1682.88 792.633 1672.46 775.583 1672.46 775.583C1683.35 775.583 1694.25 768.006 1694.25 768.006C1662.99 758.06 1655.41 736.748 1655.41 736.748C1655.41 736.748 1645.94 762.796 1616.58 768.006C1616.58 768.006 1627.47 775.583 1638.84 775.583C1638.84 775.583 1628.42 792.633 1614.21 795.001C1614.21 795.001 1625.57 802.105 1636.94 796.895C1636.94 796.895 1627.47 817.734 1610.89 818.681C1610.89 818.681 1623.21 826.732 1635.05 823.417C1635.05 823.417 1624.63 840.94 1605.21 842.834C1605.21 842.834 1618.47 849.938 1630.78 847.097C1630.78 847.097 1618 865.094 1600 865.567C1600 865.567 1610.42 876.934 1648.31 878.354V924.767H1667.25V878.354C1701.35 876.46 1713.66 865.567 1713.66 865.567Z" fill="#7B8D95"/>
<path d="M484.913 1004.8C471.179 1004.33 460.76 990.596 460.76 990.596C470.232 992.964 480.651 987.281 480.651 987.281C465.969 985.86 457.918 972.126 457.918 972.126C466.917 974.967 476.389 968.337 476.389 968.337C463.601 967.863 456.497 951.761 456.497 951.761C465.022 955.55 473.547 950.34 473.547 950.34C462.654 948.446 454.603 935.185 454.603 935.185C463.128 935.185 471.653 929.502 471.653 929.502C447.499 921.924 441.816 905.348 441.816 905.348C441.816 905.348 434.712 925.239 411.979 929.502C411.979 929.502 420.504 935.185 429.029 935.185C429.029 935.185 420.977 948.446 410.085 950.34C410.085 950.34 419.083 956.023 427.134 951.761C427.134 951.761 420.03 967.863 407.243 968.337C407.243 968.337 416.715 974.494 425.713 972.126C425.713 972.126 417.662 985.387 402.981 987.281C402.981 987.281 412.926 992.964 422.398 990.596C422.398 990.596 411.505 1004.33 397.771 1004.8C397.771 1004.8 405.349 1013.33 433.765 1014.75V1052.16H447.973V1014.28C477.336 1013.33 484.913 1004.8 484.913 1004.8Z" fill="#7B8D95"/>
<path d="M402.034 1021.38C390.667 1020.91 381.669 1009.54 381.669 1009.54C389.72 1011.44 398.245 1006.7 398.245 1006.7C385.931 1005.28 379.301 994.388 379.301 994.388C386.878 996.756 394.93 991.546 394.93 991.546C384.51 991.073 378.354 977.812 378.354 977.812C385.458 981.127 393.035 976.391 393.035 976.391C384.037 974.97 376.933 964.077 376.933 964.077C384.037 964.077 391.141 959.341 391.141 959.341C371.25 953.185 366.04 938.977 366.04 938.977C366.04 938.977 360.357 955.553 341.413 959.341C341.413 959.341 348.517 964.077 355.621 964.077C355.621 964.077 348.99 974.97 339.992 976.865C339.992 976.865 347.57 981.601 354.674 978.285C354.674 978.285 348.517 991.546 338.098 992.02C338.098 992.02 346.149 997.229 353.726 994.861C353.726 994.861 347.096 1006.23 334.782 1007.65C334.782 1007.65 343.307 1012.38 351.358 1010.49C351.358 1010.49 341.413 1022.33 329.573 1022.33C329.573 1022.33 338.098 1029.43 358.936 1030.85V1060.69H373.618V1030.85C395.877 1028.49 402.034 1021.38 402.034 1021.38Z" fill="#7B8D95"/>
<path d="M559.742 994.863C547.429 994.389 537.483 982.075 537.483 982.075C546.008 983.97 554.533 979.234 554.533 979.234C541.745 977.813 534.168 965.973 534.168 965.973C542.219 968.341 550.744 962.658 550.744 962.658C539.377 962.184 533.221 947.976 533.221 947.976C540.798 951.291 548.376 946.555 548.376 946.555C538.904 944.661 531.8 933.295 531.8 933.295C539.377 933.295 546.955 928.085 546.955 928.085C525.643 921.455 520.433 906.773 520.433 906.773C520.433 906.773 514.277 924.296 493.912 928.085C493.912 928.085 501.489 933.295 509.067 933.295C509.067 933.295 501.963 944.661 492.491 946.555C492.491 946.555 500.069 951.291 507.646 947.976C507.646 947.976 501.489 962.184 490.123 962.658C490.123 962.658 498.648 968.341 506.699 965.973C506.699 965.973 499.595 977.813 486.334 979.234C486.334 979.234 495.333 983.97 503.857 982.075C503.857 982.075 495.333 994.389 483.019 994.863C483.019 994.863 492.491 1002.44 516.171 1003.86V1038.43H530.379V1003.86C553.112 1002.44 559.742 994.863 559.742 994.863Z" fill="#7B8D95"/>
<path d="M626.52 976.861C614.206 976.388 604.734 964.074 604.734 964.074C613.259 965.968 621.784 961.232 621.784 961.232C608.997 959.811 601.419 947.971 601.419 947.971C609.47 950.339 617.995 944.656 617.995 944.656C606.629 944.183 600.472 929.975 600.472 929.975C608.05 933.29 615.627 928.554 615.627 928.554C606.155 926.66 599.051 915.293 599.051 915.293C606.629 915.293 614.206 910.083 614.206 910.083C592.894 903.453 587.685 888.771 587.685 888.771C587.685 888.771 581.528 906.295 561.163 910.083C561.163 910.083 568.741 915.293 576.318 915.293C576.318 915.293 569.214 926.66 559.742 928.554C559.742 928.554 567.32 933.29 574.898 929.975C574.898 929.975 568.741 944.183 557.374 944.656C557.374 944.656 565.899 950.339 573.95 947.971C573.95 947.971 566.846 959.811 553.586 961.232C553.586 961.232 562.584 965.968 571.109 964.074C571.109 964.074 561.637 976.388 549.797 976.861C549.797 976.861 558.322 984.439 582.002 985.859V1019.96H596.21V985.859C619.416 983.965 626.52 976.861 626.52 976.861Z" fill="#7B8D95"/>
<path d="M169.022 983.966C143.922 983.019 124.504 957.445 124.504 957.445C142.027 961.707 160.498 951.288 160.498 951.288C133.502 948.446 118.347 923.819 118.347 923.819C135.397 928.555 152.446 917.189 152.446 917.189C128.766 915.768 115.506 886.405 115.506 886.405C131.134 893.509 147.237 883.563 147.237 883.563C127.346 879.774 112.19 856.094 112.19 856.094C127.819 856.094 143.448 845.201 143.448 845.201C99.4033 831.467 88.5105 800.683 88.5105 800.683C88.5105 800.683 75.2497 837.15 33.5729 845.201C33.5729 845.201 49.2017 856.094 64.8305 856.094C64.8305 856.094 49.6753 880.248 29.7841 883.563C29.7841 883.563 45.8865 893.982 61.5153 886.405C61.5153 886.405 48.2545 915.768 24.5745 917.189C24.5745 917.189 42.0977 928.555 58.6737 923.819C58.6737 923.819 43.5185 948.446 16.5233 951.288C16.5233 951.288 34.9937 961.707 52.5169 957.445C52.5169 957.445 32.1521 983.019 7.05127 983.966C7.05127 983.966 25.9953 1000.07 73.3553 1002.44V1028.96H101.771V1002.44C155.288 999.595 169.022 983.966 169.022 983.966Z" fill="#7B8D95"/>
<path d="M265.637 1004.33C246.693 1003.86 231.538 984.442 231.538 984.442C244.799 987.758 258.533 979.706 258.533 979.706C238.168 977.338 226.802 958.868 226.802 958.868C239.589 962.657 252.376 953.658 252.376 953.658C234.853 952.711 224.907 930.452 224.907 930.452C236.747 935.662 249.061 928.084 249.061 928.084C233.906 925.242 222.539 907.246 222.539 907.246C234.379 907.246 246.219 899.194 246.219 899.194C213.067 888.775 204.543 865.569 204.543 865.569C204.543 865.569 194.597 893.038 163.339 899.194C163.339 899.194 175.179 907.246 187.019 907.246C187.019 907.246 175.653 925.242 160.498 928.084C160.498 928.084 172.811 935.662 184.651 930.452C184.651 930.452 174.706 952.711 157.183 953.658C157.183 953.658 170.443 962.183 183.231 958.868C183.231 958.868 171.864 977.338 151.499 979.706C151.499 979.706 165.707 987.284 178.495 984.442C178.495 984.442 162.866 1003.86 143.922 1004.33C143.922 1004.33 155.762 1016.17 193.65 1018.07V1066.85H217.33V1018.07C254.744 1015.7 265.637 1004.33 265.637 1004.33Z" fill="#7B8D95"/>
<path d="M1920 1100V967.192C1920 967.192 1682.56 851.933 1336.02 937.784C989.468 1023.64 650.603 1076.28 381.663 1049.72C231.825 1035.02 -1 1001.34 -1 1001.34V1100H1920Z" fill="#D3F0F4"/>
<path d="M1289.04 133.845L1271.52 148.053L1287.62 164.629C1289.04 166.05 1289.04 168.418 1287.62 170.312C1287.14 170.786 1286.67 171.259 1285.72 171.259C1284.3 171.733 1282.88 171.259 1281.93 170.312L1263.94 151.842L1251.62 150.895L1251.15 157.999C1251.15 159.42 1250.2 160.84 1248.78 160.84C1248.31 160.84 1248.31 160.84 1247.84 160.84C1245.94 160.84 1244.52 159.419 1244.99 157.525L1245.47 150.421L1214.68 148.527L1235.05 171.733L1238.84 168.418C1240.26 167.471 1242.15 167.471 1243.57 168.891C1244.52 170.312 1244.52 172.207 1243.1 173.627L1239.31 176.943L1246.89 185.467H1247.36L1272.94 188.309C1274.83 188.309 1276.73 190.203 1276.25 192.571C1276.25 194.466 1274.83 195.413 1273.41 195.887C1272.94 195.887 1272.46 195.887 1271.99 195.887L1249.26 193.519L1248.78 216.251C1248.78 218.146 1247.36 219.567 1245.94 220.04C1245.47 220.04 1245.47 220.04 1244.99 220.04C1243.1 220.04 1241.21 218.146 1241.21 216.251L1241.68 191.624C1241.68 191.624 1241.68 191.624 1241.21 191.624L1232.68 182.152L1227.47 186.888C1227 187.362 1226.52 187.362 1226.05 187.835C1225.1 188.309 1223.68 187.835 1222.73 186.888C1221.79 185.467 1221.79 183.573 1223.21 182.152L1228.42 177.89L1209 155.631L1207.11 185.941L1211.37 186.415C1213.26 186.415 1214.68 187.835 1214.21 189.73C1214.21 191.151 1213.26 192.571 1211.84 192.571C1211.37 192.571 1211.37 192.571 1210.89 192.571L1206.63 192.098L1206.16 203.464L1222.26 223.355C1223.68 224.776 1223.21 227.618 1221.79 228.565C1221.31 229.039 1220.84 229.039 1220.37 229.512C1219.42 229.512 1218.47 229.512 1217.53 229.039C1216.58 229.986 1201.9 210.568 1201.9 210.568L1185.32 226.671C1184.85 227.144 1184.37 227.618 1183.43 227.618C1182.01 228.091 1180.58 227.618 1179.64 226.671C1178.22 225.25 1178.22 222.882 1179.64 220.987L1198.11 202.991L1198.58 191.624L1191.48 191.151C1189.58 191.151 1188.16 189.73 1188.64 187.835C1188.64 185.941 1190.06 184.52 1191.95 184.994L1199.05 185.467L1200.95 153.263L1177.27 174.575L1180.58 178.363C1181.53 179.784 1181.53 181.679 1180.11 183.099C1179.64 183.573 1179.16 183.573 1178.69 184.047C1177.74 184.52 1176.32 184.047 1175.37 183.099L1172.06 179.311L1164.01 186.415V186.888L1161.17 212.463C1161.17 214.357 1159.75 215.304 1158.33 215.778C1157.85 215.778 1157.38 215.778 1156.9 215.778C1155.01 215.778 1153.12 213.883 1153.59 211.515L1155.96 188.783L1133.22 188.309C1131.33 188.309 1129.44 186.415 1129.44 184.52C1129.44 182.626 1131.33 180.731 1133.22 180.731L1157.85 181.205C1157.85 181.205 1157.85 181.205 1158.33 180.731L1166.85 173.154L1162.59 168.418C1161.64 166.997 1161.64 165.103 1163.06 163.682C1164.48 162.735 1166.38 162.735 1167.8 164.155L1172.06 168.891L1194.79 148.527L1164.48 146.632L1164.01 152.315C1164.01 153.736 1163.06 155.157 1161.64 155.157C1161.17 155.157 1161.17 155.157 1160.69 155.157C1158.8 155.157 1157.38 153.736 1157.85 151.842L1158.33 146.159L1146.96 145.685L1127.07 161.787C1126.59 162.261 1126.12 162.261 1125.65 162.735C1124.23 163.208 1122.81 162.735 1121.86 161.314C1120.44 159.893 1120.91 157.051 1122.33 156.104L1139.85 141.896L1123.75 125.32C1122.33 123.899 1122.33 121.531 1123.75 119.637C1125.17 118.216 1127.54 118.216 1129.44 119.637L1147.43 138.107L1158.8 138.581L1159.27 132.424C1159.27 130.53 1160.69 129.109 1162.59 129.583C1164.48 129.583 1165.9 131.003 1165.43 132.898L1164.96 139.055L1195.27 140.949L1175.37 118.216L1171.59 121.531C1171.11 122.005 1170.64 122.005 1170.17 122.479C1169.22 122.952 1167.8 122.479 1166.85 121.531C1165.9 120.111 1165.9 118.216 1167.32 116.795L1171.59 112.533L1163.53 103.535C1163.53 103.535 1163.53 103.535 1163.53 103.061L1138.91 100.693C1137.01 100.693 1135.12 98.7987 1135.59 96.4307C1135.59 94.5363 1137.49 92.6418 1139.85 93.1154L1162.59 95.4834L1163.06 72.7507C1163.06 70.8563 1164.96 68.9619 1166.85 68.9619C1168.74 68.9619 1170.64 70.8563 1170.64 72.7507L1170.17 98.7987V99.2723L1177.74 107.323L1182.48 103.061C1183.9 102.114 1185.79 102.114 1187.21 103.535C1188.16 104.956 1188.16 106.85 1186.74 108.271L1182.01 112.533L1202.84 136.213L1204.74 105.429L1199.05 104.955C1197.16 104.955 1195.74 103.535 1196.21 101.64C1196.21 99.7459 1197.63 98.3251 1199.53 98.7987L1205.21 99.2723L1206.16 86.9587L1190.06 67.0674C1188.64 65.6466 1189.11 62.8051 1190.53 61.8579C1191.95 60.4371 1194.79 60.9106 1195.74 62.3314L1209.95 79.8547L1226.52 63.7523C1227.94 62.3315 1230.31 62.3315 1232.21 63.7523C1233.63 65.1731 1233.63 67.541 1232.21 69.4354L1213.74 87.4323L1212.79 99.7459L1218.95 100.219C1220.84 100.219 1222.26 101.64 1221.79 103.535C1221.79 104.956 1220.84 106.376 1219.42 106.376C1218.95 106.376 1218.95 106.376 1218.47 106.376L1212.32 105.903L1210.42 134.792L1232.21 115.375L1229.37 112.059C1228.42 110.639 1228.42 108.744 1229.84 107.323C1231.26 106.376 1233.15 106.376 1234.57 107.797L1237.42 111.112L1246.89 102.587C1246.89 102.587 1246.89 102.587 1247.36 102.587L1249.73 77.9603C1249.73 76.0659 1251.62 74.1715 1253.99 74.6451C1255.89 74.6451 1257.78 76.5394 1257.31 78.9074L1254.94 101.64L1277.67 102.114C1279.57 102.114 1281.46 104.008 1281.46 105.903C1281.46 107.797 1280.04 109.218 1278.62 109.691C1278.15 109.691 1278.15 109.691 1277.67 109.691L1251.62 109.218H1251.15L1242.15 117.269L1246.89 122.479C1247.84 123.9 1247.84 125.794 1246.41 127.215C1245.94 127.688 1245.47 127.688 1244.99 128.162C1244.05 128.635 1242.63 128.162 1241.68 127.215L1236.94 122.005L1214.21 142.37L1244.99 144.264L1245.47 140.002C1245.47 138.107 1246.89 136.687 1248.78 137.16C1250.68 137.16 1252.1 138.581 1251.62 140.475L1251.15 144.738L1263.46 145.685L1283.36 129.583C1284.78 128.162 1287.62 128.635 1288.57 130.056C1290.93 130.056 1290.93 132.424 1289.04 133.845Z" fill="white"/>
</g>
</svg>
