<svg width="128" height="122" viewBox="0 0 128 122" fill="none" xmlns="http://www.w3.org/2000/svg">
<path d="M107.79 60.751C107.79 83.5587 88.1847 102.048 64.0004 102.048C39.8162 102.048 20.2109 83.5587 20.2109 60.751C20.2109 37.9434 39.8162 19.4541 64.0004 19.4541C88.1847 19.4541 107.79 37.9434 107.79 60.751Z" fill="#F2994A"/>
<path fill-rule="evenodd" clip-rule="evenodd" d="M128 60.7498C128 59.5698 126.986 58.6133 125.735 58.6133L113.841 58.6133C112.59 58.6133 111.575 59.5698 111.575 60.7498C111.575 61.9298 112.59 62.8863 113.841 62.8863L125.735 62.8863C126.986 62.8863 128 61.9298 128 60.7498Z" fill="#F2994A"/>
<path fill-rule="evenodd" clip-rule="evenodd" d="M0 60.7498C0 59.5698 1.01429 58.6133 2.26549 58.6133H14.1593C15.4105 58.6133 16.4248 59.5698 16.4248 60.7498C16.4248 61.9298 15.4105 62.8863 14.1593 62.8863H2.26549C1.01429 62.8863 0 61.9298 0 60.7498Z" fill="#F2994A"/>
<path fill-rule="evenodd" clip-rule="evenodd" d="M63.9999 0.394531C62.7487 0.394531 61.7344 1.35109 61.7344 2.53106L61.7344 13.7479C61.7344 14.9278 62.7487 15.8844 63.9999 15.8844C65.2511 15.8844 66.2653 14.9278 66.2653 13.7479L66.2653 2.53106C66.2653 1.35109 65.2511 0.394531 63.9999 0.394531Z" fill="#F2994A"/>
<path fill-rule="evenodd" clip-rule="evenodd" d="M63.9999 121.108C62.7487 121.108 61.7344 120.152 61.7344 118.972L61.7344 107.755C61.7344 106.575 62.7487 105.619 63.9999 105.619C65.2511 105.619 66.2653 106.575 66.2653 107.755L66.2653 118.972C66.2653 120.152 65.2511 121.108 63.9999 121.108Z" fill="#F2994A"/>
<path fill-rule="evenodd" clip-rule="evenodd" d="M31.9991 8.48056C30.9155 9.07055 30.5443 10.3772 31.1699 11.3991L37.1168 21.1131C37.7423 22.135 39.1279 22.4852 40.2115 21.8952C41.295 21.3052 41.6663 19.9985 41.0407 18.9766L35.0938 9.26259C34.4682 8.2407 33.0826 7.89057 31.9991 8.48056Z" fill="#F2994A"/>
<path fill-rule="evenodd" clip-rule="evenodd" d="M95.9988 113.023C94.9153 113.613 93.5297 113.262 92.9041 112.241L86.9572 102.526C86.3316 101.505 86.7029 100.198 87.7864 99.6079C88.87 99.018 90.2556 99.3681 90.8812 100.39L96.8281 110.104C97.4537 111.126 97.0824 112.433 95.9988 113.023Z" fill="#F2994A"/>
<path fill-rule="evenodd" clip-rule="evenodd" d="M8.57513 30.5735C7.94953 31.5954 8.32079 32.9021 9.40435 33.4921L19.7047 39.1005C20.7883 39.6905 22.1738 39.3404 22.7994 38.3185C23.425 37.2966 23.0537 35.9899 21.9702 35.3999L11.6698 29.7915C10.5863 29.2015 9.20072 29.5516 8.57513 30.5735Z" fill="#F2994A"/>
<path fill-rule="evenodd" clip-rule="evenodd" d="M119.426 90.93C118.801 91.9519 117.415 92.302 116.331 91.712L106.031 86.1036C104.948 85.5136 104.576 84.2069 105.202 83.1851C105.828 82.1632 107.213 81.813 108.297 82.403L118.597 88.0114C119.681 88.6014 120.052 89.9081 119.426 90.93Z" fill="#F2994A"/>
<path fill-rule="evenodd" clip-rule="evenodd" d="M8.57478 90.93C9.20037 91.9519 10.5859 92.302 11.6695 91.712L21.9698 86.1036C23.0534 85.5136 23.4246 84.2069 22.799 83.1851C22.1735 82.1632 20.7879 81.813 19.7043 82.403L9.404 88.0114C8.32044 88.6014 7.94918 89.9081 8.57478 90.93Z" fill="#F2994A"/>
<path fill-rule="evenodd" clip-rule="evenodd" d="M119.426 30.5735C120.051 31.5954 119.68 32.9021 118.597 33.4921L108.296 39.1005C107.213 39.6905 105.827 39.3404 105.202 38.3185C104.576 37.2966 104.947 35.9899 106.031 35.3999L116.331 29.7915C117.415 29.2015 118.8 29.5516 119.426 30.5735Z" fill="#F2994A"/>
<path fill-rule="evenodd" clip-rule="evenodd" d="M31.9999 113.023C33.0835 113.613 34.4691 113.262 35.0947 112.241L41.0416 102.526C41.6672 101.505 41.2959 100.198 40.2123 99.6079C39.1288 99.018 37.7432 99.3681 37.1176 100.39L31.1707 110.104C30.5451 111.126 30.9164 112.433 31.9999 113.023Z" fill="#F2994A"/>
<path fill-rule="evenodd" clip-rule="evenodd" d="M95.9999 8.48056C97.0835 9.07055 97.4548 10.3772 96.8292 11.3991L90.8823 21.1131C90.2567 22.135 88.8711 22.4852 87.7876 21.8952C86.704 21.3052 86.3327 19.9985 86.9583 18.9766L92.9052 9.26259C93.5308 8.2407 94.9164 7.89057 95.9999 8.48056Z" fill="#F2994A"/>
</svg>
