<svg width="34" height="37" viewBox="0 0 34 37" fill="none" xmlns="http://www.w3.org/2000/svg">
<path d="M17.0535 5.70728C8.83171 5.70728 2.14892 11.2448 2.00004 20.1609C1.99937 20.2003 2.00677 20.2395 2.02181 20.2761C2.03685 20.3126 2.05923 20.3459 2.08761 20.3739C2.11599 20.4018 2.14981 20.424 2.18706 20.4389C2.22431 20.4538 2.26424 20.4613 2.30449 20.4609C2.36451 20.4605 2.42318 20.4434 2.47357 20.4114C2.52396 20.3795 2.56396 20.334 2.58886 20.2805C3.46373 18.4396 4.97928 18.0019 7.01674 18.0019C8.99899 18.0019 10.3021 18.374 11.1251 20.1363C11.2154 20.333 11.4128 20.4609 11.6336 20.4609C11.7509 20.4573 11.8646 20.4208 11.9613 20.3557C12.058 20.2906 12.1335 20.1996 12.179 20.0937C12.9719 18.3773 15.2151 18.0019 17.0535 18.0019M17.0535 5.70728C25.2769 5.70728 31.958 11.2448 32.1052 20.1609C32.1059 20.2 32.0986 20.2389 32.0838 20.2753C32.0689 20.3117 32.0469 20.3448 32.0188 20.3727C31.9908 20.4006 31.9574 20.4228 31.9205 20.4379C31.8837 20.4531 31.8441 20.4609 31.8041 20.4609C31.7441 20.4605 31.6854 20.4434 31.635 20.4114C31.5847 20.3795 31.5446 20.334 31.5197 20.2805C30.6415 18.4396 29.1277 18.0019 27.0902 18.0019C25.1079 18.0019 23.8048 18.374 22.9818 20.1363C22.9377 20.2324 22.8663 20.3141 22.7761 20.3716C22.686 20.4291 22.5809 20.4601 22.4733 20.4609C22.3561 20.4573 22.2423 20.4208 22.1457 20.3557C22.049 20.2906 21.9734 20.1996 21.928 20.0937C21.1351 18.3773 18.8919 18.0019 17.0535 18.0019M17.0535 5.70728V2.42871M17.0535 18.0019V31.9359C17.0535 32.8054 16.701 33.6393 16.0736 34.2542C15.4462 34.869 14.5952 35.2144 13.7079 35.2144C12.8206 35.2144 11.9696 34.869 11.3422 34.2542C10.7148 33.6393 10.3623 32.8054 10.3623 31.9359" stroke="white" stroke-width="3" stroke-linecap="round" stroke-linejoin="round"/>
</svg>
